<?xml version="1.0" encoding="UTF-8" standalone="no"?>
<svg
   version="1.1"
   id="Layer_1"
   x="0px"
   y="0px"
   width="150"
   viewBox="0 0 150 39.999998"
   enable-background="new 0 0 1344 960"
   xml:space="preserve"
   sodipodi:docname="pankb_logo.svg"
   inkscape:version="1.2.2 (1:1.2.2+202305151914+b0a8486541)"
   height="40"
   xmlns:inkscape="http://www.inkscape.org/namespaces/inkscape"
   xmlns:sodipodi="http://sodipodi.sourceforge.net/DTD/sodipodi-0.dtd"
   xmlns="http://www.w3.org/2000/svg"
   xmlns:svg="http://www.w3.org/2000/svg"><defs
   id="defs103" /><sodipodi:namedview
   id="namedview101"
   pagecolor="#ffffff"
   bordercolor="#eeeeee"
   borderopacity="1"
   inkscape:showpageshadow="0"
   inkscape:pageopacity="0"
   inkscape:pagecheckerboard="0"
   inkscape:deskcolor="#505050"
   showgrid="false"
   inkscape:zoom="2.3688077"
   inkscape:cx="103.63864"
   inkscape:cy="116.30323"
   inkscape:window-width="2560"
   inkscape:window-height="1416"
   inkscape:window-x="0"
   inkscape:window-y="0"
   inkscape:window-maximized="1"
   inkscape:current-layer="Layer_1" />
















































<g
   id="g491"
   transform="matrix(0.0451806,0.00890824,-0.00890824,0.0451806,5.84274,-6.733411)"
   style="stroke-width:19.3429;stroke-dasharray:none"><path
     fill="none"
     opacity="1"
     stroke="#000000"
     stroke-linecap="round"
     stroke-linejoin="round"
     stroke-width="3"
     d="m 732.65064,433.98776 c -7.68811,0.2752 -15.03833,2.54138 -22.4729,4.12692 -7.47418,1.59402 -15.03119,2.53122 -22.54132,3.78815 -5.2572,0.87985 -10.28223,2.58471 -15.48664,3.58047 -9.66369,1.84888 -19.32861,3.69162 -29.00018,5.49902 -10.82886,2.02369 -21.75122,3.63791 -32.46924,6.13297 -7.30078,1.69952 -14.69177,2.63342 -22.05029,3.73529 -4.92877,0.73804 -9.53113,2.56287 -14.46802,3.2225 -7.54352,1.00794 -14.97052,2.95166 -22.52563,3.78617 -5.14649,0.56839 -9.86817,2.52917 -14.96405,3.27664 -10.23975,1.50198 -20.35028,3.87649 -30.52307,5.84503 -10.49402,2.0307 -20.99653,4.01807 -31.49939,6.00296 -7.16285,1.35367 -14.331,2.67899 -21.49976,4.0011 -5.4975,1.01385 -11.09839,1.63776 -16.47485,3.0939 -6.9267,1.87601 -14.05146,2.42261 -21.03955,3.83508 -4.37159,0.88358 -8.74207,1.66187 -13.00165,3.02192 -0.72217,0.23056 -1.78919,0.41397 -2.96192,-0.92597 2.75873,-7.81637 5.6186,-15.91925 8.47846,-24.02215"
     id="path2"
     style="stroke:#967cba;stroke-width:27.1441;stroke-dasharray:none;stroke-opacity:1" /><path
     fill="none"
     opacity="1"
     stroke="#000000"
     stroke-linecap="round"
     stroke-linejoin="round"
     stroke-width="3"
     d="m 478.1507,225.48777 c -4.16669,14 -8.43604,27.97045 -12.4765,42.00678 -6.42157,22.30793 -12.65448,44.67009 -19.03333,66.99043 -6.95746,24.34549 -13.95782,48.67883 -21.0058,72.99826 -2.90588,10.02728 -5.94976,20.01511 -9.0003,29.99966 -1.35046,4.4202 -3.06409,5.33606 -7.48566,4.5131 -17.33307,-3.22611 -32.62915,0.40509 -46.13403,12.33834 -5.30145,4.68448 -9.59107,9.85386 -13.9032,16.15543 -7.83942,-4.25388 -15.90033,-8.62796 -23.96124,-13.00201"
     id="path4"
     style="stroke:#967cba;stroke-width:27.1441;stroke-dasharray:none;stroke-opacity:1" /><path
     fill="none"
     opacity="1"
     stroke="#000000"
     stroke-linecap="round"
     stroke-linejoin="round"
     stroke-width="3"
     d="m 316.15064,256.48776 c 4.57709,7.79738 7.00445,16.4795 9.36749,25.03659 5.34479,19.3536 13.53504,37.70001 19.27283,56.92154 6.23865,20.89965 14.88867,41.02121 20.93664,62.01968 1.48304,5.1489 3.9231,10.02216 5.94648,15.08051 -0.48908,1.1427 -1.28644,2.01406 -2.52362,2.44122 -24.77839,8.55533 -40.08277,26.77328 -49.80103,50.08331 -2.89417,6.94187 -5.78009,14.35428 -4.79181,22.42853 0.27649,2.2587 -0.65515,4.64706 -0.89105,6.9902 -0.60693,6.0275 0.64349,11.83548 2.53729,17.48056 1.08313,3.22855 0.50617,4.77689 -3.03693,5.58905 -7.71948,1.76954 -15.3496,3.92884 -23.01629,5.92884"
     id="path6"
     style="stroke:#809cc9;stroke-width:27.1441;stroke-dasharray:none;stroke-opacity:1" /><path
     fill="none"
     opacity="1"
     stroke="#000000"
     stroke-linecap="round"
     stroke-linejoin="round"
     stroke-width="3"
     d="m 617.15064,365.48776 c -20.37824,12.69964 -40.86664,25.21722 -61.38599,37.68756 -10.09717,6.13632 -20.11529,12.51394 -30.23529,18.61117 -11.37268,6.8519 -22.89325,13.51142 -34.35425,20.24289 -10.44873,6.13693 -20.64337,12.70462 -31.03735,18.93692 -11.27655,6.76145 -22.72565,13.23786 -33.92676,20.11966 -2.2511,1.383 -3.98767,0.73239 -5.50055,-0.19574 -2.39129,-1.4671 -4.59771,-3.37915 -6.51513,-5.444 -3.46747,-3.73407 -7.70331,-4.56634 -12.54517,-4.53491 -4.49164,0.0292 -10.11664,1.96088 -13.20026,-0.76239 -3.18005,-2.80838 -3.88311,-8.36533 -5.8233,-12.65027 -1.81476,-4.0079 -2.93286,-8.33621 -5.47595,-12.01089"
     id="path8"
     style="stroke:#967cba;stroke-width:27.1441;stroke-dasharray:none;stroke-opacity:1" /><path
     fill="none"
     opacity="1"
     stroke="#000000"
     stroke-linecap="round"
     stroke-linejoin="round"
     stroke-width="3"
     d="m 373.15064,664.98776 c 1.27887,-9.13349 2.55774,-18.26697 3.83722,-27.40522 -31.7215,-3.59033 -78.13855,-25.98944 -104.5282,-75.95636 -26.09955,13.45209 -52.1969,26.92121 -78.31287,40.35407 -9.80978,5.04578 -19.76938,9.81036 -29.47097,15.05414 -14.2349,7.69403 -29.22333,13.93768 -43.02518,22.45337"
     id="path10"
     style="stroke:#71c7b9;stroke-width:27.1441;stroke-dasharray:none;stroke-opacity:1" /><path
     fill="none"
     opacity="1"
     stroke="#000000"
     stroke-linecap="round"
     stroke-linejoin="round"
     stroke-width="3"
     d="m 462.15064,685.48776 c -2.86627,-7.2085 -4.37634,-14.86353 -7.4054,-22.03992 -1.23022,-2.91467 -2.3302,-4.04877 -5.61187,-3.01495 -21.85267,6.88342 -44.42218,7.89929 -66.96711,6.33056 -16.78912,-1.16833 -32.94818,-5.77057 -48.61834,-12.53784 -11.443,-4.94171 -22.21625,-10.69891 -32.36792,-17.77991 -0.72553,-0.5061 -1.3487,-0.34729 -2.49524,-0.54736 -27.59815,37.92004 -55.31616,76.0047 -83.03418,114.08936"
     id="path12"
     style="stroke:#71c7b9;stroke-width:27.1441;stroke-dasharray:none;stroke-opacity:1" /><path
     fill="none"
     opacity="1"
     stroke="#000000"
     stroke-linecap="round"
     stroke-linejoin="round"
     stroke-width="3"
     d="m 193.15064,404.48776 c 4.67004,3.04037 9.82339,5.07351 15.01098,6.96997 8.24769,3.0151 15.39942,8.19455 23.47452,11.56476 19.71115,8.22671 39.353,16.61978 59.00962,24.97677 3.43273,1.45944 4.63824,3.42587 3.12683,7.53336 -4.91016,13.34375 -8.28168,27.17148 -7.9961,41.45263 0.28186,14.09372 1.87268,28.19809 7.03168,41.44117 2.41223,6.19213 6.63776,11.65893 9.81647,17.57531 7.26312,13.51868 17.29138,24.47205 30.57153,33.14258 -5.84112,7.53638 -11.914,14.6886 -16.54553,22.84345"
     id="path14"
     style="stroke:#809cc9;stroke-width:27.1441;stroke-dasharray:none;stroke-opacity:1" /><path
     fill="none"
     opacity="1"
     stroke="#000000"
     stroke-linecap="round"
     stroke-linejoin="round"
     stroke-width="3"
     d="m 150.15064,443.48776 c 7.10501,1.79449 14.27701,3.23837 21.48154,4.59787 5.86175,1.10614 5.68338,1.46411 7.03656,-4.09348 6.15615,-25.28339 16.48275,-48.81045 29.94665,-71.02576 1.9444,-3.20828 4.84845,-5.79837 6.33872,-9.8508 -14.81336,-9.09237 -27.99769,-20.3594 -42.20972,-30.26235 -20.53311,-14.30747 -40.40534,-29.56193 -60.61307,-44.33909 -3.80423,-2.78189 -7.40423,-5.9487 -11.98068,-7.52639"
     id="path16"
     style="stroke:#809cc9;stroke-width:27.1441;stroke-dasharray:none;stroke-opacity:1" /><path
     fill="none"
     opacity="1"
     stroke="#000000"
     stroke-linecap="round"
     stroke-linejoin="round"
     stroke-width="3"
     d="m 329.15064,134.48776 c 3.46765,1.39251 1.96203,5.12416 2.13251,7.03281 0.70111,7.85095 3.89093,15.10055 4.5241,22.95457 0.6092,7.55836 2.34748,15.04599 3.87842,22.50543 2.87842,14.02495 6.35047,27.94093 8.77356,42.04008 0.95716,5.56922 2.68152,11.16434 2.12274,17.45574 -22.63507,5.6252 -45.71014,10.66548 -66.90283,22.9527 -4.39129,-8.2381 -8.7099,-16.33971 -13.0285,-24.44133"
     id="path18"
     style="stroke:#809cc9;stroke-width:27.1441;stroke-dasharray:none;stroke-opacity:1" /><path
     fill="none"
     opacity="1"
     stroke="#000000"
     stroke-linecap="round"
     stroke-linejoin="round"
     stroke-width="3"
     d="m 743.15064,361.98776 c -11.33331,4.16665 -22.6499,8.3797 -34.00403,12.48892 -16.12811,5.83694 -31.58966,13.34592 -47.9494,18.6546 -7.90784,2.56604 -15.32263,6.6518 -23.87488,10.45615 -11.49152,-25.60208 -24.04895,-50.45893 -43.6654,-71.62299 7.34545,-6.63971 14.16955,-12.8082 20.99371,-18.97668"
     id="path20"
     style="stroke:#967cba;stroke-width:27.1441;stroke-dasharray:none;stroke-opacity:1" /><path
     fill="none"
     opacity="1"
     stroke="#000000"
     stroke-linecap="round"
     stroke-linejoin="round"
     stroke-width="3"
     d="m 612.15064,637.48776 c -6.89923,-5.76563 -14.67102,-10.17719 -23.06574,-15.00061 -20.49981,31.22253 -47.82129,55.18127 -79.61255,74.02703 17.88379,33.45289 35.53107,66.46326 53.17829,99.47358"
     id="path22"
     style="stroke:#66be79;stroke-width:27.1441;stroke-dasharray:none;stroke-opacity:1" /><path
     fill="none"
     opacity="1"
     stroke="#000000"
     stroke-linecap="round"
     stroke-linejoin="round"
     stroke-width="3"
     d="m 552.65064,663.98776 c -5.4621,-7.31842 -11.56317,-14.04578 -18.55719,-20.34668 -44.48584,38.87829 -95.85651,57.25226 -154.86048,51.79504 -3.72015,19.03796 -2.5877,37.5495 -6.08233,55.55164"
     id="path24"
     style="stroke:#66be79;stroke-width:27.1441;stroke-dasharray:none;stroke-opacity:1" /><path
     fill="none"
     opacity="1"
     stroke="#000000"
     stroke-linecap="round"
     stroke-linejoin="round"
     stroke-width="3"
     d="m 284.15064,146.48776 c 2.83142,1.50094 2.52612,4.7575 3.31341,7.06369 6.33332,18.5529 12.0481,37.31605 18.27851,55.9055 1.67517,4.99826 2.55981,10.2269 4.81842,15.07259 1.31189,2.81448 -1.52698,3.63682 -3.42377,4.42599 -6.77228,2.81769 -13.76184,5.03307 -20.55261,7.87444 -13.7749,5.76365 -26.64368,13.10876 -39.41437,20.69076 -5.08569,3.01939 -9.95288,6.40698 -15.24075,9.83522 -4.51782,-8.13377 -10.70282,-14.84772 -15.77884,-22.36819"
     id="path26"
     style="stroke:#809cc9;stroke-width:27.1441;stroke-dasharray:none;stroke-opacity:1" /><path
     fill="none"
     opacity="1"
     stroke="#000000"
     stroke-linecap="round"
     stroke-linejoin="round"
     stroke-width="3"
     d="m 555.65064,163.98776 c -8.66669,18.66665 -17.20758,37.39328 -26.06659,55.96824 -3.20545,6.72103 -5.58325,13.87349 -9.81757,20.10744 -26.9353,-11.69783 -54.4226,-21.04385 -84.23614,-24.50278 0.8811,-9.10305 1.75073,-18.08798 2.6203,-27.0729"
     id="path28"
     style="stroke:#967cba;stroke-width:27.1441;stroke-dasharray:none;stroke-opacity:1" /><path
     fill="none"
     opacity="1"
     stroke="#000000"
     stroke-linecap="round"
     stroke-linejoin="round"
     stroke-width="3"
     d="m 412.65064,779.98776 c 0.67047,-8.8996 -1.76367,-17.62342 -0.89337,-27 -7.09809,0 -13.61219,0.22766 -20.10437,-0.0527 -10.01093,-0.43231 -19.9928,-1.47998 -29.98401,-2.20007 -6.52497,-0.47022 -12.9372,-3.05914 -19.5033,-4.32489 -5.02026,-0.96765 -5.78796,-0.71961 -7.53985,4.0686 -5.30127,14.48902 -7.71436,29.74512 -11.95685,44.51435 -3.04712,10.60784 -4.95252,21.52264 -8.51825,31.99475"
     id="path30"
     style="stroke:#66be79;stroke-width:27.1441;stroke-dasharray:none;stroke-opacity:1" /><path
     fill="none"
     opacity="1"
     stroke="#000000"
     stroke-linecap="round"
     stroke-linejoin="round"
     stroke-width="3"
     d="m 448.1507,805.98776 c -1.32892,-9.16736 -2.65778,-18.33472 -4.13055,-28.49524 -20.69605,5.63812 -41.88477,2.67456 -63.5044,3.66656 1.00824,7.8869 -1.28467,15.28314 -0.83465,22.82685 0.60906,10.20892 -0.60309,20.35217 -1.18976,30.49261 -0.56885,9.83264 -1.90393,19.62695 -1.83081,29.50916 0.009,1.18249 0.0293,2.29022 -1.50989,2.50006"
     id="path32"
     style="stroke:#66be79;stroke-width:27.1441;stroke-dasharray:none;stroke-opacity:1" /><path
     fill="none"
     opacity="1"
     stroke="#000000"
     stroke-linecap="round"
     stroke-linejoin="round"
     stroke-width="3"
     d="m 88.650638,526.48776 c 8.851349,-0.42786 17.622312,-1.92081 27.740812,-1.37622 -3.58487,-21.66629 0.17023,-42.61197 0.39029,-63.81162 -8.62225,-0.73053 -16.52987,-2.07318 -24.615477,-2.5675 -8.184418,-0.50037 -16.399994,-2.01911 -24.551392,-3.55475 -5.068786,-0.95493 -10.348968,-1.11295 -15.465271,-2.185 -6.278381,-1.31555 -12.650116,-0.9661 -18.998962,-1.00491"
     id="path34"
     style="stroke:#809cc9;stroke-width:27.1441;stroke-dasharray:none;stroke-opacity:1" /><path
     fill="none"
     opacity="1"
     stroke="#000000"
     stroke-linecap="round"
     stroke-linejoin="round"
     stroke-width="3"
     d="m 664.65064,592.98776 c -7.81262,-3.05512 -15.62531,-6.11029 -24.15552,-9.44611 -8.53143,17.09387 -14.9696,35.08289 -25.65576,51.07221 -11.82227,17.68914 -24.72681,34.27819 -40.67096,49.06719 19.92029,20.5318 38.49457,42.07197 58.98224,61.80671"
     id="path36"
     style="stroke:#9ed676;stroke-width:27.1441;stroke-dasharray:none;stroke-opacity:1" /><path
     fill="none"
     opacity="1"
     stroke="#000000"
     stroke-linecap="round"
     stroke-linejoin="round"
     stroke-width="3"
     d="m 113.15064,373.48776 c 16.86313,7.43374 33.72623,14.86749 51.00476,22.4844 -12.25925,31.13684 -20.26517,63.05441 -20.5708,97.09696 -9.60062,-0.42517 -18.76731,0.55258 -27.93396,-0.58136"
     id="path38"
     style="stroke:#809cc9;stroke-width:27.1441;stroke-dasharray:none;stroke-opacity:1" /><path
     fill="none"
     opacity="1"
     stroke="#000000"
     stroke-linecap="round"
     stroke-linejoin="round"
     stroke-width="3"
     d="m 64.650638,561.4877 c 8.842041,-1.96131 17.684052,-3.92267 27.236786,-6.04163 -2.302185,-19.30035 -5.604096,-38.49274 -5.255249,-58.45831 -19.145233,0 -37.813385,0 -56.481537,0"
     id="path40"
     style="stroke:#809cc9;stroke-width:27.1441;stroke-dasharray:none;stroke-opacity:1" /><path
     fill="none"
     opacity="1"
     stroke="#000000"
     stroke-linecap="round"
     stroke-linejoin="round"
     stroke-width="3"
     d="m 605.65064,262.98776 c -6.24939,6.95785 -12.59839,13.83233 -18.33692,21.54135 20.10871,17.78879 37.69324,37.46267 51.95337,60.69052 6.41016,-4.26575 13.06403,-8.87991 19.90381,-13.19974 9.18701,-5.80234 18.76801,-10.98389 27.47974,-17.53213"
     id="path42"
     style="stroke:#967cba;stroke-width:27.1441;stroke-dasharray:none;stroke-opacity:1" /><path
     fill="none"
     opacity="1"
     stroke="#000000"
     stroke-linecap="round"
     stroke-linejoin="round"
     stroke-width="3"
     d="m 111.15061,680.4877 c 7.90985,-5.38959 15.81967,-10.77924 23.74295,-16.17804 -6.76758,-12.05286 -13.50006,-23.66498 -19.31973,-35.78504 -1.96253,-4.08722 -3.19529,-8.39722 -4.96051,-12.52087 -0.90845,-2.12232 -1.51316,-3.50537 -5.04248,-2.23822 -11.644018,4.18054 -23.138525,8.65063 -34.441137,13.67517 -4.858429,2.15973 -9.611664,4.7157 -14.979065,5.54706"
     id="path44"
     style="stroke:#71c7b9;stroke-width:27.1441;stroke-dasharray:none;stroke-opacity:1" /><path
     fill="none"
     opacity="1"
     stroke="#000000"
     stroke-linecap="round"
     stroke-linejoin="round"
     stroke-width="3"
     d="m 706.65064,545.98776 c -7.29553,-0.375 -14.46198,-1.60315 -21.48358,-3.55896 -1.77631,-0.49475 -3.34973,-0.47315 -5.59534,-0.13898 -5.7735,35.16333 -17.41748,68.2312 -35.53296,99.01819 7.63782,6.16217 16.04877,10.02099 23.61188,15.17975"
     id="path46"
     style="stroke:#9ed676;stroke-width:27.1441;stroke-dasharray:none;stroke-opacity:1" /><path
     fill="none"
     opacity="1"
     stroke="#000000"
     stroke-linecap="round"
     stroke-linejoin="round"
     stroke-width="3"
     d="m 76.150638,391.48776 c 7.046539,4.03366 15.02182,5.61148 22.535126,8.40558 2.489626,0.92584 4.150756,-0.51294 5.043886,-3.38099 3.78802,-12.16436 8.58475,-23.95846 13.94321,-35.51428 2.13171,-4.59714 4.51211,-9.07892 6.99288,-14.04046 -4.3157,-4.1456 -9.89321,-7.0568 -15.5664,-9.3425 -9.70981,-3.91208 -18.185732,-9.97458 -27.427614,-14.66889 -2.139649,-1.08682 -4.052704,-2.61218 -6.521088,-2.95846"
     id="path48"
     style="stroke:#809cc9;stroke-width:27.1441;stroke-dasharray:none;stroke-opacity:1" /><path
     fill="none"
     opacity="1"
     stroke="#000000"
     stroke-linecap="round"
     stroke-linejoin="round"
     stroke-width="3"
     d="m 706.65064,641.98776 c -8.10803,-3.79493 -16.21613,-7.58991 -24.7865,-11.60126 -8.30951,18.15735 -19.16754,34.39209 -29.9068,51.25232 16.22437,9.9469 30.47241,21.82147 45.6933,32.34894"
     id="path50"
     style="stroke:#9ed676;stroke-width:27.1441;stroke-dasharray:none;stroke-opacity:1" /><path
     fill="none"
     opacity="1"
     stroke="#000000"
     stroke-linecap="round"
     stroke-linejoin="round"
     stroke-width="3"
     d="m 398.65064,157.98776 c 0,8.83647 0,17.67295 0,27 5.98993,0 11.49567,0.0564 16.99982,-0.0123 9.87414,-0.12323 19.34832,2.60721 29.02075,3.85285 8.55761,1.10206 17.03045,2.44481 25.49359,4.08641 7.15216,1.38728 7.04388,1.07316 8.53656,-6.41681 1.22735,-6.15869 3.00116,-12.19795 5.44928,-18.0101"
     id="path52"
     style="stroke:#967cba;stroke-width:27.1441;stroke-dasharray:none;stroke-opacity:1" /><path
     fill="none"
     opacity="1"
     stroke="#000000"
     stroke-linecap="round"
     stroke-linejoin="round"
     stroke-width="3"
     d="m 667.65064,244.98776 c -12.71393,13.50445 -27.63764,24.65374 -40.55603,38.63876 -12.60175,-15.41428 -27.93201,-27.13049 -43.71143,-38.98053 3.49225,-6.17503 7.4878,-12.18449 12.28675,-17.64128 1.36413,-1.55112 2.83691,-2.98427 3.48071,-5.01695"
     id="path54"
     style="stroke:#967cba;stroke-width:27.1441;stroke-dasharray:none;stroke-opacity:1" /><path
     fill="none"
     opacity="1"
     stroke="#000000"
     stroke-linecap="round"
     stroke-linejoin="round"
     stroke-width="3"
     d="m 235.65064,198.98776 c 3.948,8.04651 9.31079,15.31033 12.94501,24.24768 -22.61716,12.69645 -43.7956,28.18039 -63.38306,46.1033 -6.99881,-6.30522 -13.09988,-13.03256 -18.56195,-20.35098"
     id="path56"
     style="stroke:#809cc9;stroke-width:27.1441;stroke-dasharray:none;stroke-opacity:1" /><path
     fill="none"
     opacity="1"
     stroke="#000000"
     stroke-linecap="round"
     stroke-linejoin="round"
     stroke-width="3"
     d="m 484.15064,826.98776 c -2.99817,-8.31751 -4.79572,-16.9646 -7.02869,-26.27564 -18.96057,3.51868 -37.6383,8.48151 -57.65185,8.40827 0.78509,5.53601 -0.901,10.73846 1.12335,15.88983 0.39715,1.01062 0.11481,2.31415 0.0484,3.47705 -0.72504,12.69568 1.16748,25.32086 1.00879,38.00049"
     id="path58"
     style="stroke:#66be79;stroke-width:27.1441;stroke-dasharray:none;stroke-opacity:1" /><path
     fill="none"
     opacity="1"
     stroke="#000000"
     stroke-linecap="round"
     stroke-linejoin="round"
     stroke-width="3"
     d="m 166.15064,745.48776 c 5.91827,-6.90442 12.14825,-13.50513 19.32928,-20.11768 19.33936,18.01892 40.32425,33.60315 63.68958,45.96704 -5.02551,8.55676 -9.63477,16.40729 -13.51886,24.65064"
     id="path60"
     style="stroke:#71c7b9;stroke-width:27.1441;stroke-dasharray:none;stroke-opacity:1" /><path
     fill="none"
     opacity="1"
     stroke="#000000"
     stroke-linecap="round"
     stroke-linejoin="round"
     stroke-width="3"
     d="m 737.65064,517.98776 c -8.85144,0.79187 -17.63294,-2.12232 -27.02979,-0.62506 0.87928,19.87439 -5.3432,38.71728 -8.30938,58.29608 9.53033,1.2456 17.76959,4.42004 26.33056,6.36676 9.53748,2.16864 19.00861,4.6289 28.50861,6.96222"
     id="path62"
     style="stroke:#9ed676;stroke-width:27.1441;stroke-dasharray:none;stroke-opacity:1" /><path
     fill="none"
     opacity="1"
     stroke="#000000"
     stroke-linecap="round"
     stroke-linejoin="round"
     stroke-width="3"
     d="m 769.15064,496.98776 c -8.5,0 -17.00012,-0.0178 -25.49994,0.0143 -1.78851,0.007 -4.17938,-0.65054 -3.98779,2.48489 0.80957,13.24469 -1.97614,26.30237 -1.99768,39.50077 -8.6e-4,0.51086 0.21295,1.02209 0.46606,2.15918 9.48773,-1.33857 18.617,1.78039 28.01935,1.84082"
     id="path64"
     style="stroke:#9ed676;stroke-width:27.1441;stroke-dasharray:none;stroke-opacity:1" /><path
     fill="none"
     opacity="1"
     stroke="#000000"
     stroke-linecap="round"
     stroke-linejoin="round"
     stroke-width="3"
     d="m 421.65064,128.48776 c 0.60376,9.39246 -1.7323,18.62743 -0.9176,28.5 -14.5824,0 -28.5824,0 -43.21015,0 0.99878,-8.38893 -1.24908,-16.10295 -0.9378,-24.00259 0.0597,-1.5163 1.20459,-3.71042 -1.43445,-4.49741"
     id="path66"
     style="stroke:#967cba;stroke-width:27.1441;stroke-dasharray:none;stroke-opacity:1" /><path
     fill="none"
     opacity="1"
     stroke="#000000"
     stroke-linecap="round"
     stroke-linejoin="round"
     stroke-width="3"
     d="m 757.15064,405.98776 c -3.75549,-0.67456 -7.18604,1.22162 -10.41126,2.27227 -5.47522,1.78351 -11.20715,2.29361 -17.46911,4.54361 3.33105,13.33075 6.16882,26.91129 7.64099,41.27195 9.94092,-0.41361 19.50488,-2.89881 29.23938,-2.08783"
     id="path68"
     style="stroke:#967cba;stroke-width:27.1441;stroke-dasharray:none;stroke-opacity:1" /><path
     fill="none"
     opacity="1"
     stroke="#000000"
     stroke-linecap="round"
     stroke-linejoin="round"
     stroke-width="3"
     d="m 284.15064,848.48776 c 2.672,-1.79755 2.55096,-5.02253 3.33356,-7.55152 1.56207,-5.04828 3.60803,-9.92065 5.09124,-14.97058 0.9505,-3.23633 1.64344,-4.34033 5.62879,-3.15857 11.88879,3.52564 23.79052,7.1048 36.44818,9.33771 0.0908,6.64575 -1.1958,12.77026 -2.58478,18.82391 -0.73639,3.20935 0.0527,6.97437 -2.91699,9.51905"
     id="path70"
     style="stroke:#66be79;stroke-width:27.1441;stroke-dasharray:none;stroke-opacity:1" /><path
     fill="none"
     opacity="1"
     stroke="#000000"
     stroke-linecap="round"
     stroke-linejoin="round"
     stroke-width="3"
     d="m 56.150638,361.98776 c 5.67334,0.8442 10.581787,3.8923 15.963165,5.61505 3.2836,1.05111 6.730286,2.12472 9.586273,4.42541 -3.458618,12.2038 -8.669342,23.89347 -11.123626,36.44504 -0.649079,3.31934 -2.977631,4.07941 -6.451264,3.10529 -7.58435,-2.1269 -15.307892,-3.75745 -22.974548,-5.59079"
     id="path72"
     style="stroke:#809cc9;stroke-width:27.1441;stroke-dasharray:none;stroke-opacity:1" /><path
     fill="none"
     opacity="1"
     stroke="#000000"
     stroke-linecap="round"
     stroke-linejoin="round"
     stroke-width="3"
     d="m 33.150638,542.98776 c 8.241089,0.24493 16.208099,-2.89991 24.49826,-1.98426 1.168335,0.12909 2.457581,-0.54004 3.826874,0.73871 0.907959,13.60004 4.512604,27.04968 7.491364,40.59363 -9.809723,2.34583 -18.813111,4.4989 -27.816498,6.65192"
     id="path74"
     style="stroke:#71c7b9;stroke-width:27.1441;stroke-dasharray:none;stroke-opacity:1" /><path
     fill="none"
     opacity="1"
     stroke="#000000"
     stroke-linecap="round"
     stroke-linejoin="round"
     stroke-width="3"
     d="m 512.65064,146.48776 c -0.70209,5.95037 -3.36041,11.32635 -4.96625,17.00953 -0.90503,3.20288 -0.49811,7.4489 -3.19116,9.25583 -2.55469,1.71408 -5.85224,-1.15686 -8.80774,-1.90335 -9.32855,-2.35626 -18.46204,-5.41273 -28.01349,-6.99136 -2.96814,-0.49059 -4.55286,-1.86907 -3.39429,-6.46466 1.86182,-7.38513 3.61695,-15.07706 3.37293,-22.90599"
     id="path76"
     style="stroke:#967cba;stroke-width:27.1441;stroke-dasharray:none;stroke-opacity:1" /><path
     fill="none"
     opacity="1"
     stroke="#000000"
     stroke-linecap="round"
     stroke-linejoin="round"
     stroke-width="3"
     d="m 512.65064,848.48776 c -0.70209,-5.95038 -3.36041,-11.32636 -4.96619,-17.00959 -0.90503,-3.20288 -0.49817,-7.44885 -3.19128,-9.25573 -2.55463,-1.71411 -5.91382,1.0603 -8.79773,1.91632 -10.43872,3.09875 -21.03693,5.54486 -32.16748,8.25885 1.02276,9.51928 4.18573,18.60309 4.12268,28.09015"
     id="path78"
     style="stroke:#66be79;stroke-width:27.1441;stroke-dasharray:none;stroke-opacity:1" /><path
     fill="none"
     opacity="1"
     stroke="#000000"
     stroke-linecap="round"
     stroke-linejoin="round"
     stroke-width="3"
     d="m 743.15064,632.98776 c -9.21332,-1.91211 -17.47577,-6.29639 -26.87482,-10.22394 -5.53668,12.60315 -10.64075,25.62738 -17.91431,38.3324 7.74793,5.42089 15.99103,10.12512 24.78913,13.89154"
     id="path80"
     style="stroke:#9ed676;stroke-width:27.1441;stroke-dasharray:none;stroke-opacity:1" /><path
     fill="none"
     opacity="1"
     stroke="#000000"
     stroke-linecap="round"
     stroke-linejoin="round"
     stroke-width="3"
     d="m 697.65064,280.98776 c -7.31671,5.02401 -14.63342,10.04803 -22.42243,15.3963 7.86628,11.97119 15.87201,23.99698 22.76508,37.02627 7.91663,-4.41772 15.55627,-8.63647 23.12653,-12.97628 0.73315,-0.42026 1.34765,-0.34562 2.03082,-0.44629"
     id="path82"
     style="stroke:#967cba;stroke-width:27.1441;stroke-dasharray:none;stroke-opacity:1" /><path
     fill="none"
     opacity="1"
     stroke="#000000"
     stroke-linecap="round"
     stroke-linejoin="round"
     stroke-width="3"
     d="m 100.65064,713.98776 c 7.69415,-5.01892 15.32165,-10.12665 22.50671,-16.58338 -8.58117,-11.38586 -16.14462,-23.17895 -22.80603,-35.86346 -7.959959,4.44195 -15.599699,8.66064 -23.169951,13.00043 -0.733124,0.42034 -1.347564,0.3457 -2.030731,0.44641"
     id="path84"
     style="stroke:#71c7b9;stroke-width:27.1441;stroke-dasharray:none;stroke-opacity:1" /><path
     fill="none"
     opacity="1"
     stroke="#000000"
     stroke-linecap="round"
     stroke-linejoin="round"
     stroke-width="3"
     d="m 201.65061,808.98776 c 4.8136,-7.67945 9.6272,-15.35883 14.68164,-23.42249 12.09479,7.50842 24.7258,13.92938 38.1478,20.09876 -5.46027,8.59619 -7.38056,18.19732 -13.32941,25.82373"
     id="path86"
     style="stroke:#71c7b9;stroke-width:27.1441;stroke-dasharray:none;stroke-opacity:1" /><path
     fill="none"
     opacity="1"
     stroke="#000000"
     stroke-linecap="round"
     stroke-linejoin="round"
     stroke-width="3"
     d="m 596.65064,808.98776 c -4.76886,-7.70734 -10.17346,-15.01386 -14.40253,-23.5589 -12.38202,7.4732 -24.74975,14.2276 -38.1018,19.89203 3.26428,7.26971 6.33471,14.24133 9.54071,21.15002 0.76275,1.64386 2.19921,2.98926 1.96362,5.01685"
     id="path88"
     style="stroke:#66be79;stroke-width:27.1441;stroke-dasharray:none;stroke-opacity:1" /><path
     fill="none"
     opacity="1"
     stroke="#000000"
     stroke-linecap="round"
     stroke-linejoin="round"
     stroke-width="3"
     d="m 242.15064,163.48776 c 3.86706,7.98394 7.73419,15.96789 11.92993,24.63035 -12.63116,7.0582 -25.20929,14.08675 -37.84039,21.14493 -4.96228,-7.91652 -9.77591,-15.5959 -14.58957,-23.27527"
     id="path90"
     style="stroke:#809cc9;stroke-width:27.1441;stroke-dasharray:none;stroke-opacity:1" /><path
     fill="none"
     opacity="1"
     stroke="#000000"
     stroke-linecap="round"
     stroke-linejoin="round"
     stroke-width="3"
     d="m 596.65064,185.98776 c -4.72107,7.80092 -10.41681,15.02121 -14.33631,23.82911 11.7757,7.46468 23.04743,15.48763 34.10608,24.81922 6.21131,-7.37593 12.22077,-14.51213 18.23023,-21.64833"
     id="path92"
     style="stroke:#967cba;stroke-width:27.1441;stroke-dasharray:none;stroke-opacity:1" /><path
     fill="none"
     opacity="1"
     stroke="#000000"
     stroke-linecap="round"
     stroke-linejoin="round"
     stroke-width="3"
     d="m 164.65064,212.98776 c 5.75104,7.09945 11.50207,14.19893 17.55469,21.6707 -11.19361,8.82391 -21.05671,18.64877 -30.74723,28.52635 -8.11367,-5.08905 -14.39315,-11.71983 -20.80746,-18.19705"
     id="path94"
     style="stroke:#809cc9;stroke-width:27.1441;stroke-dasharray:none;stroke-opacity:1" /><path
     fill="none"
     opacity="1"
     stroke="#000000"
     stroke-linecap="round"
     stroke-linejoin="round"
     stroke-width="3"
     d="m 667.65064,749.98776 c -6.41773,-6.41773 -12.83551,-12.83551 -19.50678,-19.50678 -10.29736,10.54926 -20.61065,20.58191 -32.01947,29.83698 6.38739,7.12646 12.45685,13.89813 18.52625,20.6698"
     id="path96"
     style="stroke:#9ed676;stroke-width:27.1441;stroke-dasharray:none;stroke-opacity:1" /><path
     fill="none"
     opacity="1"
     stroke="#000000"
     stroke-linecap="round"
     stroke-linejoin="round"
     stroke-width="3"
     d="m 130.65064,749.98776 c 6.6214,-6.56202 12.94308,-13.44739 20.68957,-19.30524 10.09458,10.01709 19.85361,20.27191 30.79682,29.50079 -5.5036,7.67633 -11.73502,14.04138 -17.48639,20.80445"
     id="path98"
     style="stroke:#71c7b9;stroke-width:27.1441;stroke-dasharray:none;stroke-opacity:1" /></g>
<text
   xml:space="preserve"
   style="font-size:40px;line-height:1.25;font-family:'Liberation Sans';-inkscape-font-specification:'Liberation Sans';letter-spacing:-3.26px"
   x="36.244755"
   y="34.130642"
   id="text440"><tspan
     sodipodi:role="line"
     id="tspan438"
     x="36.244755"
     y="34.130642"
     style="font-style:normal;font-variant:normal;font-weight:normal;font-stretch:normal;font-family:Helvetica;-inkscape-font-specification:Helvetica">PanKB</tspan></text></svg>
