<?xml version="1.0" encoding="UTF-8" standalone="no"?>
<!-- Created with Inkscape (http://www.inkscape.org/) -->

<svg
   version="1.1"
   width="150mm"
   height="40mm"
   id="svg602"
   xml:space="preserve"
   sodipodi:docname="pankb_logo_white.svg"
   inkscape:version="1.2.2 (1:1.2.2+202305151914+b0a8486541)"
   xmlns:inkscape="http://www.inkscape.org/namespaces/inkscape"
   xmlns:sodipodi="http://sodipodi.sourceforge.net/DTD/sodipodi-0.dtd"
   xmlns="http://www.w3.org/2000/svg"
   xmlns:svg="http://www.w3.org/2000/svg"
   xmlns:rdf="http://www.w3.org/1999/02/22-rdf-syntax-ns#"
   xmlns:cc="http://creativecommons.org/ns#"
   xmlns:dc="http://purl.org/dc/elements/1.1/"><sodipodi:namedview
     id="namedview24"
     pagecolor="#505050"
     bordercolor="#eeeeee"
     borderopacity="1"
     inkscape:showpageshadow="0"
     inkscape:pageopacity="0"
     inkscape:pagecheckerboard="0"
     inkscape:deskcolor="#505050"
     inkscape:document-units="mm"
     showgrid="false"
     inkscape:zoom="1.5273674"
     inkscape:cx="282.51225"
     inkscape:cy="124.06969"
     inkscape:window-width="2560"
     inkscape:window-height="1416"
     inkscape:window-x="0"
     inkscape:window-y="0"
     inkscape:window-maximized="1"
     inkscape:current-layer="g3000" /><metadata
     id="metadata23"><rdf:RDF><cc:Work
         rdf:about=""><dc:format>image/svg+xml</dc:format><dc:type
           rdf:resource="http://purl.org/dc/dcmitype/StillImage" /></cc:Work></rdf:RDF></metadata><defs
     id="defs604" /><g
     id="g3000"
     transform="rotate(90,90.83767,125.56914)"><path
   d="M -7.4036395,102.34818 38.813024,174.5344"
   id="path605"
   style="font-size:12px;fill:none;stroke:#66be79;stroke-width:17.111;stroke-linecap:round;stroke-dasharray:none;stroke-opacity:1" /><path
   d="M 18.146526,142.18019 42.614357,102.74113"
   id="path606"
   style="font-size:12px;fill:none;stroke:#71c7b9;stroke-width:17.0944;stroke-linecap:round;stroke-dasharray:none;stroke-opacity:1"
   sodipodi:nodetypes="cc" /><path
   d="m 18.087416,142.16403 21.045669,32.90752"
   id="path605-2"
   style="font-size:12px;fill:none;stroke:#809cc9;stroke-width:17.111;stroke-linecap:round;stroke-dasharray:none;stroke-opacity:1"
   sodipodi:nodetypes="cc" /><path
   d="M 39.158552,175.3384 86.666427,102.95674"
   id="path607"
   style="font-size:12px;fill:none;stroke:#967cba;stroke-width:17.111;stroke-linecap:round;stroke-dasharray:none;stroke-opacity:1" />





<path
   id="text440"
   style="font-size:38.3734px;line-height:1.25;font-family:'Liberation Sans';-inkscape-font-specification:'Liberation Sans';letter-spacing:-3.12745px;fill:#ffffff;stroke-width:3.62584"
   d="M -12.153968,86.935078 H 91.877306 V 72.841333 H 47.898795 V 40.124532 c 0,-10.480932 -2.996372,-18.247219 -8.992214,-23.298822 -6.043049,-5.051641 -13.125733,-7.5781416 -21.246085,-7.5781416 -9.4422816,0 -16.75986256,2.8326806 -21.9531226,8.4980406 -5.2404656,5.665361 -7.8613414,13.125506 -7.8613414,22.378923 z m 0,-221.251958 H 91.877306 v -13.73828 h -36.25784 l -15.93555,-16.64258 52.19339,-36.39844 v -17.78124 -0.56054 -43.41797 c 0,-13.6913 -4.06129,-23.67598 -12.18165,-29.9551 -5.42929,-4.20181 -11.4952,-6.30274 -18.19921,-6.30274 -7.978738,0 -14.233367,2.33783 -18.765626,7.01174 -2.549405,2.64382 -4.83908,6.6319 -6.86914,11.96678 -1.841235,-3.63526 -3.872882,-6.41979 -6.091805,-8.35548 -4.201814,-3.72967 -9.584126,-5.5957 -16.146482,-5.5957 -5.6181546,0 -10.5748546,1.5117 -14.8711186,4.5332 -7.2705256,5.14606 -10.9062424,13.80972 -10.9062424,25.99026 v 44.68555 H 91.094106 l -61.324231,43.9121 -41.923843,-43.26954 v 19.47462 l 50.705084,50.70508 h -50.705084 z m 11.75588044,-98.37109 v -25.13869 c 0,-6.13746 0.66051,-10.76489 1.98239996,-13.88085 2.360579,-5.52374 6.94182,-8.28514 13.7402456,-8.28514 6.751219,0 11.42487,2.59582 14.021481,7.78904 1.652409,3.30478 2.478539,7.93225 2.478539,13.88088 v 25.63476 z m 0.355653,305.529303 V 44.798372 c 0,-5.429329 0.731755,-9.702426 2.19530096,-12.818381 2.738268,-5.665361 7.9299016,-8.498042 15.5781176,-8.498042 6.798463,0 11.543357,1.983459 14.234381,5.949204 2.691061,3.918538 4.037102,9.040894 4.037102,15.367219 V 72.841333 Z M 14.189982,-24.680155 c 0,7.69542 1.842898,14.471963 5.525405,20.3261488 C 23.35065,1.4530115 29.84214,4.4744035 39.18997,4.7104725 V -7.1879712 c -3.918539,-0.472101 -6.870614,-1.4869419 -8.853506,-3.0449388 -3.588057,-2.785437 -5.380838,-7.507239 -5.380838,-14.164045 0,-5.759773 0.991711,-10.173468 2.974602,-13.24218 1.935647,-3.115956 5.074507,-4.673839 9.41794,-4.673839 2.12451,0 3.753676,0.283087 4.88674,0.8496 2.077304,0.991446 3.30395,2.951811 3.681638,5.878904 l 2.550766,20.32422 c 0.897033,7.1289079 3.281046,12.8886439 7.152344,17.2793215 3.87133,4.390639 9.32296,6.5859399 16.35745,6.5859399 6.42074,0 11.77992,-2.2183939 16.07615,-6.6562769 4.24902,-4.4850526 6.37308,-10.2447876 6.37308,-17.2792835 0,-5.854224 -1.25175,-11.213405 -3.75394,-16.076182 -2.5022,-4.862778 -5.45235,-8.592832 -8.85154,-11.189443 3.0215,-0.424895 5.35933,-1.156649 7.0117,-2.195301 3.11595,-1.982889 4.67384,-5.169899 4.67384,-9.560579 0,-1.79403 -0.0711,-3.20939 -0.21279,-4.24804 -0.14173,-1.03865 -0.49595,-2.55031 -1.0625,-4.5332 h -9.41798 c 0.14173,0.80258 0.25928,1.55747 0.35339,2.26564 0.0472,0.70817 0.0703,1.34558 0.0703,1.9121 0,1.74682 -0.40052,2.90419 -1.2031,3.4707 -0.80262,0.51934 -1.86561,0.7793 -3.1875,0.7793 H 35.152678 c -7.176113,0 -12.46405,2.76144 -15.863282,8.28514 -3.399193,5.570949 -5.099603,12.817323 -5.099603,21.740259 z m 0.142488,-75.992195 c 0,4.909976 0.968655,9.371786 2.904303,13.384776 1.935685,4.01295 5.12073,7.81428 9.558614,11.40234 H 16.031708 v 12.10938 h 75.845708 v -12.74804 H 52.148878 c -4.957157,0 -8.758492,-0.30615 -11.402348,-0.91994 -2.691023,-0.66096 -5.286841,-2.05323 -7.789039,-4.17774 -3.115956,-2.64382 -5.193789,-5.7134 -6.232441,-9.20704 -0.61372,-1.93565 -0.919899,-4.414 -0.919899,-7.43554 0,-5.948646 2.360882,-10.056126 7.082003,-12.322236 2.83268,-1.36914 6.560806,-2.05471 11.187515,-2.05471 h 47.802747 v -12.95898 H 43.225069 c -7.648252,0 -13.525417,1.0399 -17.632819,3.11717 -7.506595,3.77692 -11.25978,11.04639 -11.25978,21.81056 z m 28.892599,-132.01562 v -27.97266 c 0,-5.90143 0.731754,-10.64632 2.195301,-14.23438 2.738268,-6.75122 7.885648,-10.12694 15.439446,-10.12694 4.48509,0 8.30952,1.15733 11.47268,3.4707 5.0044,3.68247 7.50584,9.84276 7.50584,18.48242 v 30.38086 z m 10.056649,190.728495 h 10.269498 c 7.83712,0 13.47742,3.54138 16.92386,10.623081 2.0773,4.201776 3.11716,8.546154 3.11716,13.031243 0,3.68247 -1.06299,6.869482 -3.1875,9.5605429 -2.12451,2.6910239 -5.02843,4.0351379 -8.7109,4.0351379 -4.86278,0 -8.40412,-1.9584 -10.62308,-5.8769388 -1.32189,-2.313375 -2.28858,-5.783435 -2.90234,-10.410143 l -0.99216,-7.718778 c -0.28347,-2.360542 -0.75508,-4.769612 -1.41604,-7.224605 -0.66096,-2.454992 -1.487058,-4.461543 -2.478498,-6.01954 z" /></g></svg>
